<?xml version="1.0" encoding="utf-8"?>
<!-- Generator: Adobe Illustrator 22.0.1, SVG Export Plug-In . SVG Version: 6.00 Build 0)  -->
<svg version="1.1" id="Ebene_1" xmlns="http://www.w3.org/2000/svg" xmlns:xlink="http://www.w3.org/1999/xlink" x="0px" y="0px"
	 viewBox="0 0 239.219 81" style="enable-background:new 0 0 239.219 81;" xml:space="preserve">
<style type="text/css">
	.st0{fill:#FF8700;}
</style>
<g>
	<path class="st0" d="M50.569,48.098c-0.589,0.174-1.058,0.239-1.674,0.239c-5.046,0-12.455-17.633-12.455-23.502
		c0-2.16,0.511-2.881,1.234-3.5c-6.176,0.721-13.586,2.987-15.956,5.868c-0.512,0.722-0.823,1.853-0.823,3.295
		c0,9.162,9.779,29.951,16.677,29.951C40.762,60.449,46.142,55.203,50.569,48.098"/>
	<path class="st0" d="M47.348,20.72c6.381,0,12.767,1.029,12.767,4.631c0,7.308-4.635,16.164-7,16.164
		c-4.221,0-9.471-11.737-9.471-17.606C43.644,21.233,44.673,20.72,47.348,20.72"/>
</g>
<g>
	<path d="M81.512,33.669V60.5h-3.741V33.669h-6.622V30.4h16.985v3.269H81.512z"/>
	<path d="M97.55,60.801c-2.106,0-5.245-0.645-5.633-0.73v-3.226c1.032,0.215,3.698,0.688,5.59,0.688
		c2.193,0,3.612-1.806,3.612-5.117c0-3.999-0.645-5.977-3.698-5.977h-3.525V43.3h3.096c3.483,0,3.655-3.568,3.655-5.288
		c0-3.397-1.075-4.773-3.226-4.773c-1.892,0-4.042,0.474-5.289,0.731v-3.14c0.474-0.086,3.011-0.73,5.203-0.73
		c4.429,0,6.966,1.892,6.966,8.299c0,2.924-0.902,5.504-3.268,6.234c2.795,0.388,3.784,3.14,3.784,7.354
		C104.818,58.393,102.324,60.801,97.55,60.801z"/>
	<path d="M128.552,52.545c0,5.805-3.096,8.256-8.041,8.256c-4.944,0-8.083-2.451-8.083-8.256V30.4h3.74v22.962
		c0,3.01,1.764,4.3,4.343,4.3c2.58,0,4.3-1.29,4.3-4.3V30.4h3.741V52.545z"/>
	<path d="M150.482,60.07c-2.278,0.43-4.429,0.73-6.75,0.73c-6.579,0-8.944-3.01-8.944-15.823c0-12.686,3.182-14.878,9.976-14.878
		c1.462,0,3.741,0.344,4.816,0.602v3.097c-1.807-0.345-3.741-0.56-5.59-0.56c-3.698,0-5.375,1.634-5.375,12.04
		c0,10.836,1.505,12.384,4.901,12.384c0.989,0,2.279-0.129,3.397-0.301v-9.546h-3.827v-3.139h7.396V60.07z"/>
	<path d="M169.746,60.5V46.654h-8.858V60.5h-3.74V30.4h3.74v13.072h8.858V30.4h3.741v30.1H169.746z"/>
	<path d="M188.924,60.801c-7.096,0-8.987-5.16-8.987-15.694c0-10.105,1.892-15.007,8.987-15.007c7.095,0,8.986,4.901,8.986,15.007
		C197.911,55.641,196.019,60.801,188.924,60.801z M188.924,33.238c-3.87,0-5.16,2.623-5.16,12.083c0,9.245,1.29,12.341,5.16,12.341
		c3.869,0,5.159-3.096,5.159-12.341C194.083,35.861,192.793,33.238,188.924,33.238z"/>
	<path d="M208.101,33.539v10.277h9.288v3.139h-9.288V60.5h-3.74V30.4h14.104v3.139H208.101z"/>
</g>
<g>
</g>
<g>
</g>
<g>
</g>
<g>
</g>
<g>
</g>
<g>
</g>
<g>
</g>
<g>
</g>
<g>
</g>
<g>
</g>
<g>
</g>
<g>
</g>
<g>
</g>
<g>
</g>
<g>
</g>
<g>
</g>
<g>
</g>
<g>
</g>
</svg>
