<?xml version="1.0" encoding="utf-8"?>
<!-- Generator: Adobe Illustrator 22.0.1, SVG Export Plug-In . SVG Version: 6.00 Build 0)  -->
<svg version="1.1" id="Ebene_1" xmlns="http://www.w3.org/2000/svg" xmlns:xlink="http://www.w3.org/1999/xlink" x="0px" y="0px"
	 viewBox="0 0 239.219 239.22" style="enable-background:new 0 0 239.219 239.22;" xml:space="preserve">
<style type="text/css">
	.st0{fill:#FF8700;}
</style>
<g>
	<path class="st0" d="M149.803,111.634c-1.766,0.521-3.175,0.716-5.023,0.716c-15.138,0-37.366-52.9-37.366-70.507
		c0-6.481,1.534-8.644,3.701-10.499c-18.528,2.162-40.759,8.962-47.867,17.605c-1.537,2.165-2.47,5.559-2.47,9.884
		c0,27.485,29.336,89.853,50.03,89.853C120.383,148.687,136.524,132.949,149.803,111.634"/>
	<path class="st0" d="M140.141,29.497c19.144,0,38.302,3.087,38.302,13.894c0,21.924-13.904,48.493-21.001,48.493
		c-12.662,0-28.413-35.211-28.413-52.818C129.028,31.036,132.116,29.497,140.141,29.497"/>
</g>
<g>
	<path d="M55.669,174.779v26.831h-3.741v-26.831h-6.622v-3.269h16.985v3.269H55.669z"/>
	<path d="M71.707,201.911c-2.106,0-5.245-0.645-5.633-0.73v-3.226c1.032,0.215,3.698,0.688,5.59,0.688
		c2.193,0,3.612-1.806,3.612-5.117c0-3.999-0.645-5.977-3.698-5.977h-3.525v-3.14h3.096c3.483,0,3.655-3.568,3.655-5.288
		c0-3.397-1.075-4.773-3.226-4.773c-1.892,0-4.042,0.474-5.289,0.731v-3.14c0.474-0.086,3.011-0.73,5.203-0.73
		c4.429,0,6.966,1.892,6.966,8.299c0,2.924-0.902,5.504-3.268,6.234c2.795,0.388,3.784,3.14,3.784,7.354
		C78.975,199.503,76.481,201.911,71.707,201.911z"/>
	<path d="M102.709,193.655c0,5.805-3.096,8.256-8.041,8.256c-4.944,0-8.083-2.451-8.083-8.256V171.51h3.74v22.962
		c0,3.01,1.764,4.3,4.343,4.3c2.58,0,4.3-1.29,4.3-4.3V171.51h3.741V193.655z"/>
	<path d="M124.639,201.18c-2.278,0.43-4.429,0.73-6.75,0.73c-6.579,0-8.944-3.01-8.944-15.823c0-12.686,3.182-14.878,9.976-14.878
		c1.462,0,3.741,0.344,4.816,0.602v3.097c-1.807-0.345-3.741-0.56-5.59-0.56c-3.698,0-5.375,1.634-5.375,12.04
		c0,10.836,1.505,12.384,4.901,12.384c0.989,0,2.279-0.129,3.397-0.301v-9.546h-3.827v-3.139h7.396V201.18z"/>
	<path d="M143.904,201.61v-13.846h-8.858v13.846h-3.74v-30.1h3.74v13.072h8.858V171.51h3.741v30.1H143.904z"/>
	<path d="M163.081,201.911c-7.096,0-8.987-5.16-8.987-15.694c0-10.105,1.892-15.007,8.987-15.007c7.095,0,8.986,4.901,8.986,15.007
		C172.068,196.751,170.176,201.911,163.081,201.911z M163.081,174.348c-3.87,0-5.16,2.623-5.16,12.083
		c0,9.245,1.29,12.341,5.16,12.341c3.869,0,5.159-3.096,5.159-12.341C168.241,176.971,166.951,174.348,163.081,174.348z"/>
	<path d="M182.258,174.649v10.277h9.288v3.139h-9.288v13.545h-3.74v-30.1h14.104v3.139H182.258z"/>
</g>
<g>
</g>
<g>
</g>
<g>
</g>
<g>
</g>
<g>
</g>
<g>
</g>
<g>
</g>
<g>
</g>
<g>
</g>
<g>
</g>
<g>
</g>
<g>
</g>
<g>
</g>
<g>
</g>
<g>
</g>
<g>
</g>
<g>
</g>
<g>
</g>
</svg>
