<?xml version="1.0" encoding="utf-8"?>
<!-- Generator: Adobe Illustrator 22.0.1, SVG Export Plug-In . SVG Version: 6.00 Build 0)  -->
<svg version="1.1" id="Ebene_1" xmlns="http://www.w3.org/2000/svg" xmlns:xlink="http://www.w3.org/1999/xlink" x="0px" y="0px"
	 viewBox="0 0 284.636 101" style="enable-background:new 0 0 284.636 101;" xml:space="preserve">
<style type="text/css">
	.st0{fill:#FF8700;}
</style>
<g>
	<path class="st0" d="M50.534,47.805c-0.589,0.174-1.058,0.239-1.674,0.239c-5.046,0-12.455-17.633-12.455-23.502
		c0-2.16,0.511-2.881,1.234-3.5c-6.176,0.721-13.586,2.987-15.956,5.868c-0.512,0.722-0.823,1.853-0.823,3.295
		c0,9.162,9.779,29.951,16.677,29.951C40.727,60.155,46.107,54.91,50.534,47.805"/>
	<path class="st0" d="M47.313,20.426c6.381,0,12.767,1.029,12.767,4.631c0,7.308-4.635,16.164-7,16.164
		c-4.221,0-9.471-11.737-9.471-17.606C43.609,20.939,44.638,20.426,47.313,20.426"/>
</g>
<g id="T3UGHOF">
	<path d="M81.477,33.669V60.5h-3.741V33.669h-6.622V30.4h16.985v3.269H81.477z"/>
	<path d="M97.515,60.801c-2.106,0-5.245-0.645-5.633-0.73v-3.226c1.032,0.215,3.698,0.688,5.59,0.688
		c2.193,0,3.612-1.806,3.612-5.117c0-3.999-0.645-5.977-3.698-5.977h-3.525V43.3h3.096c3.483,0,3.655-3.568,3.655-5.288
		c0-3.397-1.075-4.773-3.226-4.773c-1.892,0-4.042,0.474-5.289,0.731v-3.14c0.474-0.086,3.011-0.73,5.203-0.73
		c4.429,0,6.966,1.892,6.966,8.299c0,2.924-0.902,5.504-3.268,6.234c2.795,0.388,3.784,3.14,3.784,7.354
		C104.782,58.393,102.288,60.801,97.515,60.801z"/>
	<path d="M128.517,52.545c0,5.805-3.096,8.256-8.041,8.256c-4.944,0-8.083-2.451-8.083-8.256V30.4h3.74v22.962
		c0,3.01,1.764,4.3,4.343,4.3c2.58,0,4.3-1.29,4.3-4.3V30.4h3.741V52.545z"/>
	<path d="M150.446,60.07c-2.278,0.43-4.429,0.73-6.75,0.73c-6.579,0-8.944-3.01-8.944-15.823c0-12.686,3.182-14.878,9.976-14.878
		c1.462,0,3.741,0.344,4.816,0.602v3.097c-1.807-0.345-3.741-0.56-5.59-0.56c-3.698,0-5.375,1.634-5.375,12.04
		c0,10.836,1.505,12.384,4.901,12.384c0.989,0,2.279-0.129,3.397-0.301v-9.546h-3.827v-3.139h7.396V60.07z"/>
	<path d="M169.711,60.5V46.654h-8.858V60.5h-3.74V30.4h3.74v13.072h8.858V30.4h3.741v30.1H169.711z"/>
	<path d="M188.889,60.801c-7.096,0-8.988-5.16-8.988-15.694c0-10.105,1.892-15.007,8.988-15.007c7.095,0,8.986,4.901,8.986,15.007
		C197.876,55.641,195.984,60.801,188.889,60.801z M188.889,33.238c-3.871,0-5.161,2.623-5.161,12.083
		c0,9.245,1.29,12.341,5.161,12.341c3.869,0,5.159-3.096,5.159-12.341C194.049,35.861,192.758,33.238,188.889,33.238z"/>
	<path d="M208.066,33.539v10.277h9.288v3.139h-9.288V60.5h-3.74V30.4h14.104v3.139H208.066z"/>
</g>
<g id="TYPO3_User_Group_Hochfranken_e.V.">
	<path d="M74.055,71.759V80.5h-1.219v-8.741h-2.157v-1.064h5.533v1.064H74.055z"/>
	<path d="M80.467,75.947V80.5h-1.261v-4.553l-2.507-5.253h1.345l1.849,4.076l1.85-4.076h1.274L80.467,75.947z"/>
	<path d="M86.879,76.802h-1.177V80.5h-1.219v-9.806c0,0,1.205-0.098,2.367-0.098c2.13,0,2.746,1.316,2.746,3.04
		C89.597,75.766,88.868,76.802,86.879,76.802z M87.019,71.605c-0.77,0-1.316,0.084-1.316,0.084v4.09h1.316
		c0.785,0,1.331-0.519,1.331-2.045C88.35,72.334,88.014,71.605,87.019,71.605z"/>
	<path d="M94.131,80.598c-2.312,0-2.928-1.681-2.928-5.112c0-3.292,0.616-4.889,2.928-4.889s2.928,1.597,2.928,4.889
		C97.059,78.917,96.443,80.598,94.131,80.598z M94.131,71.619c-1.261,0-1.681,0.854-1.681,3.937c0,3.012,0.42,4.02,1.681,4.02
		s1.681-1.008,1.681-4.02C95.812,72.474,95.392,71.619,94.131,71.619z"/>
	<path d="M100.822,80.598c-0.687,0-1.709-0.21-1.835-0.237V79.31c0.336,0.07,1.205,0.224,1.821,0.224
		c0.714,0,1.177-0.588,1.177-1.667c0-1.303-0.21-1.946-1.205-1.946h-1.148v-1.022h1.009c1.135,0,1.19-1.163,1.19-1.724
		c0-1.106-0.351-1.555-1.051-1.555c-0.616,0-1.316,0.154-1.723,0.238v-1.022c0.154-0.028,0.98-0.238,1.694-0.238
		c1.443,0,2.27,0.616,2.27,2.703c0,0.953-0.294,1.793-1.064,2.031c0.91,0.126,1.232,1.022,1.232,2.396
		C103.19,79.813,102.377,80.598,100.822,80.598z"/>
	<path d="M114.558,77.908c0,1.892-1.008,2.689-2.619,2.689c-1.61,0-2.634-0.798-2.634-2.689v-7.214h1.219v7.48
		c0,0.98,0.574,1.4,1.415,1.4s1.401-0.42,1.401-1.4v-7.48h1.218V77.908z"/>
	<path d="M118.252,80.598c-0.798,0-1.372-0.14-1.681-0.224v-1.022c0.351,0.07,1.12,0.224,1.779,0.224
		c0.729,0,1.008-0.546,1.008-1.036c0-0.673-0.182-0.952-0.882-1.079c-1.429-0.252-1.961-0.91-1.961-1.946
		c0-1.513,1.022-2.115,2.353-2.115c0.729,0,1.219,0.168,1.499,0.238v1.022c-0.477-0.112-0.854-0.253-1.61-0.253
		c-0.869,0-1.022,0.519-1.022,1.037s0.279,0.812,0.896,0.91c1.456,0.238,1.975,0.896,1.975,2.115
		C120.606,80.023,119.681,80.598,118.252,80.598z"/>
	<path d="M123.404,77.418c0.042,1.85,0.49,2.172,1.19,2.172c0.771,0,1.457-0.126,1.877-0.225v1.009
		c-0.448,0.126-1.232,0.224-1.737,0.224c-1.61,0-2.521-0.476-2.521-3.6c0-2.592,0.869-3.6,2.55-3.6c1.61,0,2.255,1.12,2.255,2.97
		v1.05H123.404z M123.418,76.466h2.438v-0.378c0-1.064-0.295-1.695-1.121-1.695C123.838,74.393,123.488,74.854,123.418,76.466z"/>
	<path d="M128.975,80.5v-7.004h0.981l0.084,0.715c0.322-0.477,0.771-0.812,1.456-0.812c0.337,0,0.574,0.027,0.743,0.069v1.247
		c-0.238-0.056-0.575-0.126-0.841-0.126c-0.925,0-1.232,0.841-1.232,1.597V80.5H128.975z"/>
	<path d="M142.25,80.36c-0.742,0.14-1.443,0.237-2.199,0.237c-2.144,0-2.914-0.98-2.914-5.154c0-4.132,1.037-4.847,3.25-4.847
		c0.477,0,1.219,0.112,1.569,0.196v1.009c-0.589-0.112-1.219-0.183-1.821-0.183c-1.205,0-1.751,0.532-1.751,3.922
		c0,3.53,0.49,4.034,1.597,4.034c0.322,0,0.742-0.042,1.106-0.098v-3.109h-1.246v-1.023h2.409V80.36z"/>
	<path d="M144.348,80.5v-7.004h0.98l0.084,0.715c0.322-0.477,0.771-0.812,1.456-0.812c0.337,0,0.574,0.027,0.743,0.069v1.247
		c-0.238-0.056-0.574-0.126-0.841-0.126c-0.925,0-1.232,0.841-1.232,1.597V80.5H144.348z"/>
	<path d="M151.321,80.598c-1.737,0-2.662-0.798-2.662-3.739c0-2.382,0.841-3.46,2.662-3.46c1.82,0,2.661,1.078,2.661,3.46
		C153.983,79.8,153.058,80.598,151.321,80.598z M151.321,74.379c-1.121,0-1.443,0.7-1.443,2.689c0,1.82,0.393,2.549,1.443,2.549
		c1.05,0,1.442-0.729,1.442-2.549C152.764,75.079,152.442,74.379,151.321,74.379z"/>
	<path d="M159.665,80.5l-0.098-0.574c-0.393,0.435-0.896,0.672-1.611,0.672c-1.555,0-2.017-0.826-2.017-2.535v-4.566h1.19v4.707
		c0,0.882,0.154,1.387,1.009,1.387c0.771,0,1.288-0.659,1.316-1.149v-4.944h1.19V80.5H159.665z"/>
	<path d="M162.883,82.881v-9.385h0.981l0.111,0.603c0.435-0.448,0.995-0.7,1.653-0.7c1.639,0,2.213,1.064,2.213,3.151
		c0,3.067-0.756,4.048-2.983,4.048c-0.322,0-0.574-0.027-0.784-0.056v2.339H162.883z M164.074,75.598v3.936
		c0.21,0.028,0.504,0.057,0.924,0.057c1.331,0,1.625-0.967,1.625-2.899c0-1.779-0.322-2.284-1.219-2.284
		C164.62,74.406,164.074,75.093,164.074,75.598z"/>
	<path d="M177.684,80.5v-4.511h-2.886V80.5h-1.219v-9.806h1.219v4.259h2.886v-4.259h1.219V80.5H177.684z"/>
	<path d="M183.661,80.598c-1.737,0-2.662-0.798-2.662-3.739c0-2.382,0.841-3.46,2.662-3.46c1.82,0,2.661,1.078,2.661,3.46
		C186.322,79.8,185.398,80.598,183.661,80.598z M183.661,74.379c-1.121,0-1.443,0.7-1.443,2.689c0,1.82,0.393,2.549,1.443,2.549
		c1.05,0,1.442-0.729,1.442-2.549C185.104,75.079,184.781,74.379,183.661,74.379z"/>
	<path d="M192.118,80.374c-0.448,0.126-1.022,0.224-1.527,0.224c-1.61,0-2.451-0.532-2.451-3.739c0-2.508,0.757-3.46,2.438-3.46
		c0.463,0,1.135,0.111,1.541,0.21v1.036c-0.519-0.111-0.91-0.196-1.625-0.196c-0.812,0-1.135,0.617-1.135,2.689
		c0,2.102,0.435,2.41,1.135,2.41c0.757,0,1.219-0.126,1.625-0.211V80.374z"/>
	<path d="M194.007,80.5v-9.806h1.19v3.32c0.434-0.393,0.966-0.616,1.61-0.616c1.597,0,2.115,0.771,2.115,2.479V80.5h-1.19v-4.763
		c0-0.883-0.196-1.331-1.135-1.331c-0.798,0-1.4,0.687-1.4,1.191V80.5H194.007z"/>
	<path d="M202.491,74.519V80.5h-1.19v-5.981h-0.911v-1.022h0.911v-1.093c0-1.204,0.729-1.807,1.778-1.807
		c0.603,0,1.037,0.112,1.317,0.168v0.994c-0.295-0.069-0.631-0.153-1.135-0.153c-0.505,0-0.771,0.294-0.771,0.7v1.19h1.694v1.022
		H202.491z"/>
	<path d="M205.444,80.5v-7.004h0.98l0.084,0.715c0.322-0.477,0.771-0.812,1.456-0.812c0.337,0,0.574,0.027,0.743,0.069v1.247
		c-0.238-0.056-0.574-0.126-0.841-0.126c-0.925,0-1.232,0.841-1.232,1.597V80.5H205.444z"/>
	<path d="M214.673,80.5c-0.267,0-0.841-0.112-1.051-0.687c-0.351,0.505-0.911,0.784-1.85,0.784c-1.022,0-2.087-0.336-2.087-2.072
		c0-1.514,0.938-2.34,2.493-2.34h1.107V75.43c0-0.589-0.351-1.023-1.051-1.023c-0.799,0-1.331,0.099-2.031,0.295v-1.022
		c0.519-0.154,1.204-0.28,1.891-0.28c1.821,0,2.382,0.714,2.382,2.311v3.362c0,0.28,0.168,0.448,0.616,0.448v0.98H214.673z
		 M213.286,78.609v-1.472h-1.177c-0.603,0-1.205,0.379-1.205,1.303c0,0.869,0.406,1.149,1.148,1.149
		C213.019,79.59,213.286,78.889,213.286,78.609z"/>
	<path d="M216.839,80.5v-7.004h0.981l0.098,0.631c0.448-0.477,1.022-0.729,1.723-0.729c1.597,0,2.115,0.771,2.115,2.479V80.5h-1.19
		v-4.763c0-0.883-0.196-1.331-1.135-1.331c-0.799,0-1.4,0.687-1.4,1.191V80.5H216.839z"/>
	<path d="M227.424,80.5l-1.891-3.488l-0.42,0.49V80.5h-1.191v-9.806h1.191v5.323l2.143-2.521h1.457l-2.367,2.703l2.465,4.301
		H227.424z"/>
	<path d="M231.19,77.418c0.042,1.85,0.49,2.172,1.19,2.172c0.771,0,1.457-0.126,1.877-0.225v1.009
		c-0.448,0.126-1.232,0.224-1.737,0.224c-1.61,0-2.521-0.476-2.521-3.6c0-2.592,0.869-3.6,2.55-3.6c1.61,0,2.255,1.12,2.255,2.97
		v1.05H231.19z M231.204,76.466h2.438v-0.378c0-1.064-0.295-1.695-1.121-1.695C231.624,74.393,231.274,74.854,231.204,76.466z"/>
	<path d="M236.76,80.5v-7.004h0.981l0.098,0.631c0.448-0.477,1.022-0.729,1.723-0.729c1.597,0,2.115,0.771,2.115,2.479V80.5h-1.19
		v-4.763c0-0.883-0.196-1.331-1.135-1.331c-0.799,0-1.4,0.687-1.4,1.191V80.5H236.76z"/>
	<path d="M248.465,77.418c0.042,1.85,0.49,2.172,1.19,2.172c0.771,0,1.457-0.126,1.877-0.225v1.009
		c-0.448,0.126-1.232,0.224-1.737,0.224c-1.61,0-2.521-0.476-2.521-3.6c0-2.592,0.869-3.6,2.55-3.6c1.61,0,2.255,1.12,2.255,2.97
		v1.05H248.465z M248.479,76.466h2.438v-0.378c0-1.064-0.295-1.695-1.121-1.695C248.899,74.393,248.549,74.854,248.479,76.466z"/>
	<path d="M253.826,80.5v-1.4h1.401v1.4H253.826z"/>
	<path d="M259.512,80.5h-1.667l-1.919-9.806h1.232l1.541,8.573l1.667-8.573h1.205L259.512,80.5z"/>
	<path d="M262.268,80.5v-1.4h1.401v1.4H262.268z"/>
</g>
<g>
</g>
<g>
</g>
<g>
</g>
<g>
</g>
<g>
</g>
<g>
</g>
<g>
</g>
<g>
</g>
<g>
</g>
<g>
</g>
<g>
</g>
<g>
</g>
<g>
</g>
<g>
</g>
<g>
</g>
<g>
</g>
<g>
</g>
<g>
</g>
</svg>
